Coordinates
nRows=5
nColumns=24

# SIMM Motion File Header:
name Coordinates
datacolumns 24
datarows 5
otherdata 1
range 0.81933000000000000000 0.82333000000000001000
endheader
time	pelvis_tx	pelvis_ty	pelvis_tz	pelvis_tilt	pelvis_list	pelvis_rotation	hip_flexion_r	hip_adduction_r	hip_rotation_r	knee_angle_r	ankle_angle_r	subtalar_angle_r	mtp_angle_r	hip_flexion_l	hip_adduction_l	hip_rotation_l	knee_angle_l	ankle_angle_l	subtalar_angle_l	mtp_angle_l	lumbar_extension	lumbar_bending	lumbar_rotation
      0.81933000000000000000	      1.92334508138360460000	      0.82290829302530144000	     -0.27835579753949308000	     -3.71274599217687440000	     -4.50949133221450720000	      3.18533674233119020000	     24.22869952211707200000	      6.43380294784497760000	      4.25170993297664880000	    -17.42151712622284200000	     -3.33522634855594900000	      0.00000000000001115359	      0.00000000000014355792	     -2.61664725076934830000	     -6.15677597087683460000	     -5.30075064561248510000	    -38.98515817048432600000	     -8.39064560068464790000	     -0.00000000000023048332	      0.00000000000049035426	      8.13878864027938500000	      3.59597709786512440000	      8.03419266218733870000
      0.82033000000000000000	      1.92420065991706020000	      0.82298252998300092000	     -0.27821329899222563000	     -3.69262879074125960000	     -4.52345022749020040000	      3.18599387440910190000	     24.13314057292700800000	      6.47259214517040960000	      4.27686475367960210000	    -17.39858625122511200000	     -3.28797822278699090000	      0.00000000000001143526	      0.00000000000014381486	     -2.51065290212279720000	     -6.22190327191980510000	     -5.27430459182220620000	    -39.27397814442218800000	     -8.54402041046301440000	     -0.00000000000023138986	      0.00000000000049327733	      8.11491453787568060000	      3.59268246039247920000	      8.05984374901711930000
      0.82133000000000000000	      1.92505196814182520000	      0.82305443423076763000	     -0.27807221923801473000	     -3.67312618566506590000	     -4.53620824037545400000	      3.18712481819045260000	     24.03729757727801800000	      6.50973101032808100000	      4.30252445917081160000	    -17.37330333493374800000	     -3.24300031622653990000	      0.00000000000001172503	      0.00000000000014404740	     -2.40291253302791400000	     -6.28546134912182540000	     -5.24754892716465890000	    -39.56275043432370400000	     -8.69112672358032160000	     -0.00000000000023229267	      0.00000000000049620103	      8.09142389422511600000	      3.58785209276924850000	      8.08489147317586720000
      0.82233000000000001000	      1.92590327636659020000	      0.82312633847853445000	     -0.27793113948380377000	     -3.65362358058887260000	     -4.54896625326070850000	      3.18825576197180280000	     23.94145458162902800000	      6.54686987548575330000	      4.32818416466202030000	    -17.34802041864238500000	     -3.19802240966608900000	      0.00000000000001201479	      0.00000000000014427994	     -2.29517216393303030000	     -6.34901942632384490000	     -5.22079326250711250000	    -39.85152272422521200000	     -8.83823303669762870000	     -0.00000000000023319548	      0.00000000000049912472	      8.06793325057455310000	      3.58302172514601790000	      8.10993919733461510000
      0.82333000000000001000	      1.92675075217009910000	      0.82319631340021493000	     -0.27779124244022541000	     -3.63456088247017070000	     -4.56059348949062570000	      3.18967037956568380000	     23.84533663569306200000	      6.58253098367440350000	      4.35439187955002090000	    -17.32088583543569300000	     -3.15437323762080980000	      0.00000000000001231476	      0.00000000000014447124	     -2.18609342399142070000	     -6.41106937980432790000	     -5.19395555241527070000	    -40.14001637980756200000	     -8.98045405473075320000	     -0.00000000000023410312	      0.00000000000050205018	      8.04464606962803510000	      3.57680843512306090000	      8.13458402644655370000
